<svg xmlns="http://www.w3.org/2000/svg" viewBox="0 0 1153 200"><style>
.wire { stroke: #444; stroke-width: 2; }
.gate-box { fill: #fff; stroke: #111; stroke-width: 2; }
.channel-box { fill: #fff; stroke: #111; stroke-width: 2; stroke-dasharray: 6 4; }
.gate-label, .channel-label, .annotation-label { fill: #111; font-family: monospace; text-anchor: middle; dominant-baseline: middle; }
.annotation-label { dominant-baseline: auto; }
.control { fill: #111; stroke: #111; stroke-width: 2; }
.control-open { fill: #fff; stroke: #111; stroke-width: 2; }
.control-link { stroke: #111; stroke-width: 2; }
.target-x { fill: none; stroke: #111; stroke-width: 2; }
.swap-marker { stroke: #111; stroke-width: 2; }
</style><line class="wire" x1="16" y1="28" x2="1137" y2="28"/><line class="wire" x1="16" y1="76" x2="1137" y2="76"/><line class="wire" x1="16" y1="124" x2="1137" y2="124"/><line class="wire" x1="16" y1="172" x2="1137" y2="172"/><rect class="gate-box" x="47" y="14" width="42" height="28" rx="6" ry="6" data-label="H"/><text class="gate-label" x="68" y="28">H</text><line class="control-link" x1="170.75" y1="28" x2="170.75" y2="76"/><circle class="control" cx="170.75" cy="76" r="5"/><rect class="gate-box" x="113" y="14" width="115.5" height="28" rx="6" ry="6" data-label="Phase(1.5708)"/><text class="gate-label" x="170.75" y="28">Phase(1.5708)</text><line class="control-link" x1="304.25" y1="28" x2="304.25" y2="124"/><circle class="control" cx="304.25" cy="124" r="5"/><rect class="gate-box" x="246.5" y="14" width="115.5" height="28" rx="6" ry="6" data-label="Phase(0.7854)"/><text class="gate-label" x="304.25" y="28">Phase(0.7854)</text><line class="control-link" x1="437.75" y1="28" x2="437.75" y2="172"/><circle class="control" cx="437.75" cy="172" r="5"/><rect class="gate-box" x="380" y="14" width="115.5" height="28" rx="6" ry="6" data-label="Phase(0.3927)"/><text class="gate-label" x="437.75" y="28">Phase(0.3927)</text><rect class="gate-box" x="519.5" y="62" width="42" height="28" rx="6" ry="6" data-label="H"/><text class="gate-label" x="540.5" y="76">H</text><line class="control-link" x1="643.25" y1="76" x2="643.25" y2="124"/><circle class="control" cx="643.25" cy="124" r="5"/><rect class="gate-box" x="585.5" y="62" width="115.5" height="28" rx="6" ry="6" data-label="Phase(1.5708)"/><text class="gate-label" x="643.25" y="76">Phase(1.5708)</text><line class="control-link" x1="776.75" y1="76" x2="776.75" y2="172"/><circle class="control" cx="776.75" cy="172" r="5"/><rect class="gate-box" x="719" y="62" width="115.5" height="28" rx="6" ry="6" data-label="Phase(0.7854)"/><text class="gate-label" x="776.75" y="76">Phase(0.7854)</text><rect class="gate-box" x="858.5" y="110" width="42" height="28" rx="6" ry="6" data-label="H"/><text class="gate-label" x="879.5" y="124">H</text><line class="control-link" x1="982.25" y1="124" x2="982.25" y2="172"/><circle class="control" cx="982.25" cy="172" r="5"/><rect class="gate-box" x="924.5" y="110" width="115.5" height="28" rx="6" ry="6" data-label="Phase(1.5708)"/><text class="gate-label" x="982.25" y="124">Phase(1.5708)</text><rect class="gate-box" x="1064" y="158" width="42" height="28" rx="6" ry="6" data-label="H"/><text class="gate-label" x="1085" y="172">H</text></svg>