<svg xmlns="http://www.w3.org/2000/svg" width="596" height="372" viewBox="0 0 596 372" role="img" aria-labelledby="title desc">
  <title id="title">qft4-probs probabilities</title>
  <desc id="desc">Probability bar chart generated from qft4-probs.json.</desc>
  <rect width="100%" height="100%" fill="#ffffff"/>
  <text x="24" y="32" font-family="Arial, sans-serif" font-size="20" font-weight="700" fill="#172033">qft4-probs</text>
  <text x="24" y="54" font-family="Arial, sans-serif" font-size="12" fill="#5b6472">probability distribution</text>
  <line x1="64" y1="284" x2="568" y2="284" stroke="#8792a2" stroke-width="1"/>
  <line x1="64" y1="64" x2="64" y2="284" stroke="#8792a2" stroke-width="1"/>
  <text x="52" y="68" text-anchor="end" font-family="Arial, sans-serif" font-size="11" fill="#5b6472">1.0000</text>
  <text x="52" y="288" text-anchor="end" font-family="Arial, sans-serif" font-size="11" fill="#5b6472">0.0000</text>
  <rect x="64.0" y="270.2" width="24" height="13.8" rx="3" fill="#2764d8"/>
  <text x="76.0" y="264.2" text-anchor="middle" font-family="Arial, sans-serif" font-size="10" fill="#172033">0.0625</text>
  <text x="76.0" y="302" text-anchor="middle" font-family="Arial, sans-serif" font-size="10" fill="#394150">0000</text>
  <rect x="96.0" y="270.2" width="24" height="13.8" rx="3" fill="#2764d8"/>
  <text x="108.0" y="264.2" text-anchor="middle" font-family="Arial, sans-serif" font-size="10" fill="#172033">0.0625</text>
  <text x="108.0" y="302" text-anchor="middle" font-family="Arial, sans-serif" font-size="10" fill="#394150">0001</text>
  <rect x="128.0" y="270.2" width="24" height="13.8" rx="3" fill="#2764d8"/>
  <text x="140.0" y="264.2" text-anchor="middle" font-family="Arial, sans-serif" font-size="10" fill="#172033">0.0625</text>
  <text x="140.0" y="302" text-anchor="middle" font-family="Arial, sans-serif" font-size="10" fill="#394150">0010</text>
  <rect x="160.0" y="270.2" width="24" height="13.8" rx="3" fill="#2764d8"/>
  <text x="172.0" y="264.2" text-anchor="middle" font-family="Arial, sans-serif" font-size="10" fill="#172033">0.0625</text>
  <text x="172.0" y="302" text-anchor="middle" font-family="Arial, sans-serif" font-size="10" fill="#394150">0011</text>
  <rect x="192.0" y="270.2" width="24" height="13.8" rx="3" fill="#2764d8"/>
  <text x="204.0" y="264.2" text-anchor="middle" font-family="Arial, sans-serif" font-size="10" fill="#172033">0.0625</text>
  <text x="204.0" y="302" text-anchor="middle" font-family="Arial, sans-serif" font-size="10" fill="#394150">0100</text>
  <rect x="224.0" y="270.2" width="24" height="13.8" rx="3" fill="#2764d8"/>
  <text x="236.0" y="264.2" text-anchor="middle" font-family="Arial, sans-serif" font-size="10" fill="#172033">0.0625</text>
  <text x="236.0" y="302" text-anchor="middle" font-family="Arial, sans-serif" font-size="10" fill="#394150">0101</text>
  <rect x="256.0" y="270.2" width="24" height="13.8" rx="3" fill="#2764d8"/>
  <text x="268.0" y="264.2" text-anchor="middle" font-family="Arial, sans-serif" font-size="10" fill="#172033">0.0625</text>
  <text x="268.0" y="302" text-anchor="middle" font-family="Arial, sans-serif" font-size="10" fill="#394150">0110</text>
  <rect x="288.0" y="270.2" width="24" height="13.8" rx="3" fill="#2764d8"/>
  <text x="300.0" y="264.2" text-anchor="middle" font-family="Arial, sans-serif" font-size="10" fill="#172033">0.0625</text>
  <text x="300.0" y="302" text-anchor="middle" font-family="Arial, sans-serif" font-size="10" fill="#394150">0111</text>
  <rect x="320.0" y="270.2" width="24" height="13.8" rx="3" fill="#2764d8"/>
  <text x="332.0" y="264.2" text-anchor="middle" font-family="Arial, sans-serif" font-size="10" fill="#172033">0.0625</text>
  <text x="332.0" y="302" text-anchor="middle" font-family="Arial, sans-serif" font-size="10" fill="#394150">1000</text>
  <rect x="352.0" y="270.2" width="24" height="13.8" rx="3" fill="#2764d8"/>
  <text x="364.0" y="264.2" text-anchor="middle" font-family="Arial, sans-serif" font-size="10" fill="#172033">0.0625</text>
  <text x="364.0" y="302" text-anchor="middle" font-family="Arial, sans-serif" font-size="10" fill="#394150">1001</text>
  <rect x="384.0" y="270.2" width="24" height="13.8" rx="3" fill="#2764d8"/>
  <text x="396.0" y="264.2" text-anchor="middle" font-family="Arial, sans-serif" font-size="10" fill="#172033">0.0625</text>
  <text x="396.0" y="302" text-anchor="middle" font-family="Arial, sans-serif" font-size="10" fill="#394150">1010</text>
  <rect x="416.0" y="270.2" width="24" height="13.8" rx="3" fill="#2764d8"/>
  <text x="428.0" y="264.2" text-anchor="middle" font-family="Arial, sans-serif" font-size="10" fill="#172033">0.0625</text>
  <text x="428.0" y="302" text-anchor="middle" font-family="Arial, sans-serif" font-size="10" fill="#394150">1011</text>
  <rect x="448.0" y="270.2" width="24" height="13.8" rx="3" fill="#2764d8"/>
  <text x="460.0" y="264.2" text-anchor="middle" font-family="Arial, sans-serif" font-size="10" fill="#172033">0.0625</text>
  <text x="460.0" y="302" text-anchor="middle" font-family="Arial, sans-serif" font-size="10" fill="#394150">1100</text>
  <rect x="480.0" y="270.2" width="24" height="13.8" rx="3" fill="#2764d8"/>
  <text x="492.0" y="264.2" text-anchor="middle" font-family="Arial, sans-serif" font-size="10" fill="#172033">0.0625</text>
  <text x="492.0" y="302" text-anchor="middle" font-family="Arial, sans-serif" font-size="10" fill="#394150">1101</text>
  <rect x="512.0" y="270.2" width="24" height="13.8" rx="3" fill="#2764d8"/>
  <text x="524.0" y="264.2" text-anchor="middle" font-family="Arial, sans-serif" font-size="10" fill="#172033">0.0625</text>
  <text x="524.0" y="302" text-anchor="middle" font-family="Arial, sans-serif" font-size="10" fill="#394150">1110</text>
  <rect x="544.0" y="270.2" width="24" height="13.8" rx="3" fill="#2764d8"/>
  <text x="556.0" y="264.2" text-anchor="middle" font-family="Arial, sans-serif" font-size="10" fill="#172033">0.0625</text>
  <text x="556.0" y="302" text-anchor="middle" font-family="Arial, sans-serif" font-size="10" fill="#394150">1111</text>
  <text x="316.0" y="354" text-anchor="middle" font-family="Arial, sans-serif" font-size="12" fill="#5b6472">basis state</text>
</svg>
