<svg xmlns="http://www.w3.org/2000/svg" width="560" height="372" viewBox="0 0 560 372" role="img" aria-labelledby="title desc">
  <title id="title">swap-test-probs probabilities</title>
  <desc id="desc">Probability bar chart generated from swap-test-probs.json.</desc>
  <rect width="100%" height="100%" fill="#ffffff"/>
  <text x="24" y="32" font-family="Arial, sans-serif" font-size="20" font-weight="700" fill="#172033">swap-test-probs</text>
  <text x="24" y="54" font-family="Arial, sans-serif" font-size="12" fill="#5b6472">probability distribution</text>
  <line x1="64" y1="284" x2="532" y2="284" stroke="#8792a2" stroke-width="1"/>
  <line x1="64" y1="64" x2="64" y2="284" stroke="#8792a2" stroke-width="1"/>
  <text x="52" y="68" text-anchor="end" font-family="Arial, sans-serif" font-size="11" fill="#5b6472">1.0000</text>
  <text x="52" y="288" text-anchor="end" font-family="Arial, sans-serif" font-size="11" fill="#5b6472">0.0000</text>
  <rect x="64.0" y="284.0" width="24" height="0.0" rx="3" fill="#68a0ff"/>
  <text x="76.0" y="278.0" text-anchor="middle" font-family="Arial, sans-serif" font-size="10" fill="#172033">0.0000</text>
  <text x="76.0" y="302" text-anchor="middle" font-family="Arial, sans-serif" font-size="10" fill="#394150">000</text>
  <rect x="96.0" y="229.0" width="24" height="55.0" rx="3" fill="#2764d8"/>
  <text x="108.0" y="223.0" text-anchor="middle" font-family="Arial, sans-serif" font-size="10" fill="#172033">0.2500</text>
  <text x="108.0" y="302" text-anchor="middle" font-family="Arial, sans-serif" font-size="10" fill="#394150">001</text>
  <rect x="128.0" y="229.0" width="24" height="55.0" rx="3" fill="#2764d8"/>
  <text x="140.0" y="223.0" text-anchor="middle" font-family="Arial, sans-serif" font-size="10" fill="#172033">0.2500</text>
  <text x="140.0" y="302" text-anchor="middle" font-family="Arial, sans-serif" font-size="10" fill="#394150">010</text>
  <rect x="160.0" y="284.0" width="24" height="0.0" rx="3" fill="#68a0ff"/>
  <text x="172.0" y="278.0" text-anchor="middle" font-family="Arial, sans-serif" font-size="10" fill="#172033">0.0000</text>
  <text x="172.0" y="302" text-anchor="middle" font-family="Arial, sans-serif" font-size="10" fill="#394150">011</text>
  <rect x="192.0" y="284.0" width="24" height="0.0" rx="3" fill="#68a0ff"/>
  <text x="204.0" y="278.0" text-anchor="middle" font-family="Arial, sans-serif" font-size="10" fill="#172033">0.0000</text>
  <text x="204.0" y="302" text-anchor="middle" font-family="Arial, sans-serif" font-size="10" fill="#394150">100</text>
  <rect x="224.0" y="229.0" width="24" height="55.0" rx="3" fill="#2764d8"/>
  <text x="236.0" y="223.0" text-anchor="middle" font-family="Arial, sans-serif" font-size="10" fill="#172033">0.2500</text>
  <text x="236.0" y="302" text-anchor="middle" font-family="Arial, sans-serif" font-size="10" fill="#394150">101</text>
  <rect x="256.0" y="229.0" width="24" height="55.0" rx="3" fill="#2764d8"/>
  <text x="268.0" y="223.0" text-anchor="middle" font-family="Arial, sans-serif" font-size="10" fill="#172033">0.2500</text>
  <text x="268.0" y="302" text-anchor="middle" font-family="Arial, sans-serif" font-size="10" fill="#394150">110</text>
  <rect x="288.0" y="284.0" width="24" height="0.0" rx="3" fill="#68a0ff"/>
  <text x="300.0" y="278.0" text-anchor="middle" font-family="Arial, sans-serif" font-size="10" fill="#172033">0.0000</text>
  <text x="300.0" y="302" text-anchor="middle" font-family="Arial, sans-serif" font-size="10" fill="#394150">111</text>
  <text x="298.0" y="354" text-anchor="middle" font-family="Arial, sans-serif" font-size="12" fill="#5b6472">basis state</text>
</svg>
