<svg xmlns="http://www.w3.org/2000/svg" viewBox="0 0 1288 152"><style>
.wire { stroke: #444; stroke-width: 2; }
.gate-box { fill: #fff; stroke: #111; stroke-width: 2; }
.channel-box { fill: #fff; stroke: #111; stroke-width: 2; stroke-dasharray: 6 4; }
.gate-label, .channel-label, .annotation-label { fill: #111; font-family: monospace; text-anchor: middle; dominant-baseline: middle; }
.annotation-label { dominant-baseline: auto; }
.control { fill: #111; stroke: #111; stroke-width: 2; }
.control-open { fill: #fff; stroke: #111; stroke-width: 2; }
.control-link { stroke: #111; stroke-width: 2; }
.target-x { fill: none; stroke: #111; stroke-width: 2; }
.swap-marker { stroke: #111; stroke-width: 2; }
</style><line class="wire" x1="16" y1="28" x2="1272" y2="28"/><line class="wire" x1="16" y1="76" x2="1272" y2="76"/><line class="wire" x1="16" y1="124" x2="1272" y2="124"/><rect class="gate-box" x="47" y="14" width="42" height="28" rx="6" ry="6" data-label="H"/><text class="gate-label" x="68" y="28">H</text><rect class="gate-box" x="47" y="62" width="42" height="28" rx="6" ry="6" data-label="H"/><text class="gate-label" x="68" y="76">H</text><rect class="gate-box" x="47" y="110" width="42" height="28" rx="6" ry="6" data-label="H"/><text class="gate-label" x="68" y="124">H</text><rect class="gate-box" x="119" y="62" width="42" height="28" rx="6" ry="6" data-label="X"/><text class="gate-label" x="140" y="76">X</text><line class="control-link" x1="212" y1="23" x2="212" y2="138"/><circle class="control" cx="212" cy="28" r="5"/><circle class="control" cx="212" cy="76" r="5"/><rect class="gate-box" x="191" y="110" width="42" height="28" rx="6" ry="6" data-label="Z"/><text class="gate-label" x="212" y="124">Z</text><rect class="gate-box" x="263" y="62" width="42" height="28" rx="6" ry="6" data-label="X"/><text class="gate-label" x="284" y="76">X</text><rect class="gate-box" x="263" y="14" width="42" height="28" rx="6" ry="6" data-label="H"/><text class="gate-label" x="284" y="28">H</text><rect class="gate-box" x="335" y="62" width="42" height="28" rx="6" ry="6" data-label="H"/><text class="gate-label" x="356" y="76">H</text><rect class="gate-box" x="263" y="110" width="42" height="28" rx="6" ry="6" data-label="H"/><text class="gate-label" x="284" y="124">H</text><rect class="gate-box" x="335" y="14" width="42" height="28" rx="6" ry="6" data-label="X"/><text class="gate-label" x="356" y="28">X</text><rect class="gate-box" x="407" y="62" width="42" height="28" rx="6" ry="6" data-label="X"/><text class="gate-label" x="428" y="76">X</text><rect class="gate-box" x="335" y="110" width="42" height="28" rx="6" ry="6" data-label="X"/><text class="gate-label" x="356" y="124">X</text><line class="control-link" x1="500" y1="23" x2="500" y2="138"/><circle class="control" cx="500" cy="28" r="5"/><circle class="control" cx="500" cy="76" r="5"/><rect class="gate-box" x="479" y="110" width="42" height="28" rx="6" ry="6" data-label="Z"/><text class="gate-label" x="500" y="124">Z</text><rect class="gate-box" x="551" y="14" width="42" height="28" rx="6" ry="6" data-label="X"/><text class="gate-label" x="572" y="28">X</text><rect class="gate-box" x="551" y="62" width="42" height="28" rx="6" ry="6" data-label="X"/><text class="gate-label" x="572" y="76">X</text><rect class="gate-box" x="551" y="110" width="42" height="28" rx="6" ry="6" data-label="X"/><text class="gate-label" x="572" y="124">X</text><rect class="gate-box" x="623" y="14" width="42" height="28" rx="6" ry="6" data-label="H"/><text class="gate-label" x="644" y="28">H</text><rect class="gate-box" x="623" y="62" width="42" height="28" rx="6" ry="6" data-label="H"/><text class="gate-label" x="644" y="76">H</text><rect class="gate-box" x="623" y="110" width="42" height="28" rx="6" ry="6" data-label="H"/><text class="gate-label" x="644" y="124">H</text><rect class="gate-box" x="695" y="62" width="42" height="28" rx="6" ry="6" data-label="X"/><text class="gate-label" x="716" y="76">X</text><line class="control-link" x1="788" y1="23" x2="788" y2="138"/><circle class="control" cx="788" cy="28" r="5"/><circle class="control" cx="788" cy="76" r="5"/><rect class="gate-box" x="767" y="110" width="42" height="28" rx="6" ry="6" data-label="Z"/><text class="gate-label" x="788" y="124">Z</text><rect class="gate-box" x="839" y="62" width="42" height="28" rx="6" ry="6" data-label="X"/><text class="gate-label" x="860" y="76">X</text><rect class="gate-box" x="839" y="14" width="42" height="28" rx="6" ry="6" data-label="H"/><text class="gate-label" x="860" y="28">H</text><rect class="gate-box" x="911" y="62" width="42" height="28" rx="6" ry="6" data-label="H"/><text class="gate-label" x="932" y="76">H</text><rect class="gate-box" x="839" y="110" width="42" height="28" rx="6" ry="6" data-label="H"/><text class="gate-label" x="860" y="124">H</text><rect class="gate-box" x="911" y="14" width="42" height="28" rx="6" ry="6" data-label="X"/><text class="gate-label" x="932" y="28">X</text><rect class="gate-box" x="983" y="62" width="42" height="28" rx="6" ry="6" data-label="X"/><text class="gate-label" x="1004" y="76">X</text><rect class="gate-box" x="911" y="110" width="42" height="28" rx="6" ry="6" data-label="X"/><text class="gate-label" x="932" y="124">X</text><line class="control-link" x1="1076" y1="23" x2="1076" y2="138"/><circle class="control" cx="1076" cy="28" r="5"/><circle class="control" cx="1076" cy="76" r="5"/><rect class="gate-box" x="1055" y="110" width="42" height="28" rx="6" ry="6" data-label="Z"/><text class="gate-label" x="1076" y="124">Z</text><rect class="gate-box" x="1127" y="14" width="42" height="28" rx="6" ry="6" data-label="X"/><text class="gate-label" x="1148" y="28">X</text><rect class="gate-box" x="1127" y="62" width="42" height="28" rx="6" ry="6" data-label="X"/><text class="gate-label" x="1148" y="76">X</text><rect class="gate-box" x="1127" y="110" width="42" height="28" rx="6" ry="6" data-label="X"/><text class="gate-label" x="1148" y="124">X</text><rect class="gate-box" x="1199" y="14" width="42" height="28" rx="6" ry="6" data-label="H"/><text class="gate-label" x="1220" y="28">H</text><rect class="gate-box" x="1199" y="62" width="42" height="28" rx="6" ry="6" data-label="H"/><text class="gate-label" x="1220" y="76">H</text><rect class="gate-box" x="1199" y="110" width="42" height="28" rx="6" ry="6" data-label="H"/><text class="gate-label" x="1220" y="124">H</text></svg>