<svg xmlns="http://www.w3.org/2000/svg" viewBox="0 0 1828 200"><style>
.wire { stroke: #444; stroke-width: 2; }
.gate-box { fill: #fff; stroke: #111; stroke-width: 2; }
.channel-box { fill: #fff; stroke: #111; stroke-width: 2; stroke-dasharray: 6 4; }
.gate-label, .channel-label, .annotation-label { fill: #111; font-family: monospace; text-anchor: middle; dominant-baseline: middle; }
.annotation-label { dominant-baseline: auto; }
.control { fill: #111; stroke: #111; stroke-width: 2; }
.control-open { fill: #fff; stroke: #111; stroke-width: 2; }
.control-link { stroke: #111; stroke-width: 2; }
.target-x { fill: none; stroke: #111; stroke-width: 2; }
.swap-marker { stroke: #111; stroke-width: 2; }
</style><line class="wire" x1="16" y1="28" x2="1812" y2="28"/><line class="wire" x1="16" y1="76" x2="1812" y2="76"/><line class="wire" x1="16" y1="124" x2="1812" y2="124"/><line class="wire" x1="16" y1="172" x2="1812" y2="172"/><rect class="gate-box" x="47" y="14" width="42" height="28" rx="6" ry="6" data-label="H"/><text class="gate-label" x="68" y="28">H</text><rect class="gate-box" x="47" y="62" width="42" height="28" rx="6" ry="6" data-label="H"/><text class="gate-label" x="68" y="76">H</text><rect class="gate-box" x="47" y="110" width="42" height="28" rx="6" ry="6" data-label="H"/><text class="gate-label" x="68" y="124">H</text><rect class="gate-box" x="47" y="158" width="42" height="28" rx="6" ry="6" data-label="H"/><text class="gate-label" x="68" y="172">H</text><line class="control-link" x1="140" y1="23" x2="140" y2="88"/><circle class="control" cx="140" cy="28" r="5"/><circle class="target-x" cx="140" cy="76" r="12"/><line class="target-x" x1="132" y1="76" x2="148" y2="76"/><line class="target-x" x1="140" y1="68" x2="140" y2="84"/><rect class="gate-box" x="185" y="62" width="93" height="28" rx="6" ry="6" data-label="Rz(0.2000)"/><text class="gate-label" x="231.5" y="76">Rz(0.2000)</text><line class="control-link" x1="323" y1="23" x2="323" y2="88"/><circle class="control" cx="323" cy="28" r="5"/><circle class="target-x" cx="323" cy="76" r="12"/><line class="target-x" x1="315" y1="76" x2="331" y2="76"/><line class="target-x" x1="323" y1="68" x2="323" y2="84"/><line class="control-link" x1="414.5" y1="71" x2="414.5" y2="136"/><circle class="control" cx="414.5" cy="76" r="5"/><circle class="target-x" cx="414.5" cy="124" r="12"/><line class="target-x" x1="406.5" y1="124" x2="422.5" y2="124"/><line class="target-x" x1="414.5" y1="116" x2="414.5" y2="132"/><rect class="gate-box" x="479" y="110" width="93" height="28" rx="6" ry="6" data-label="Rz(0.2000)"/><text class="gate-label" x="525.5" y="124">Rz(0.2000)</text><line class="control-link" x1="617" y1="71" x2="617" y2="136"/><circle class="control" cx="617" cy="76" r="5"/><circle class="target-x" cx="617" cy="124" r="12"/><line class="target-x" x1="609" y1="124" x2="625" y2="124"/><line class="target-x" x1="617" y1="116" x2="617" y2="132"/><line class="control-link" x1="708.5" y1="119" x2="708.5" y2="184"/><circle class="control" cx="708.5" cy="124" r="5"/><circle class="target-x" cx="708.5" cy="172" r="12"/><line class="target-x" x1="700.5" y1="172" x2="716.5" y2="172"/><line class="target-x" x1="708.5" y1="164" x2="708.5" y2="180"/><rect class="gate-box" x="773" y="158" width="93" height="28" rx="6" ry="6" data-label="Rz(0.2000)"/><text class="gate-label" x="819.5" y="172">Rz(0.2000)</text><line class="control-link" x1="930.5" y1="119" x2="930.5" y2="184"/><circle class="control" cx="930.5" cy="124" r="5"/><circle class="target-x" cx="930.5" cy="172" r="12"/><line class="target-x" x1="922.5" y1="172" x2="938.5" y2="172"/><line class="target-x" x1="930.5" y1="164" x2="930.5" y2="180"/><rect class="gate-box" x="368" y="14" width="93" height="28" rx="6" ry="6" data-label="Rx(0.6000)"/><text class="gate-label" x="414.5" y="28">Rx(0.6000)</text><rect class="gate-box" x="662" y="62" width="93" height="28" rx="6" ry="6" data-label="Rx(0.6000)"/><text class="gate-label" x="708.5" y="76">Rx(0.6000)</text><rect class="gate-box" x="995" y="110" width="93" height="28" rx="6" ry="6" data-label="Rx(0.6000)"/><text class="gate-label" x="1041.5" y="124">Rx(0.6000)</text><rect class="gate-box" x="995" y="158" width="93" height="28" rx="6" ry="6" data-label="Rx(0.6000)"/><text class="gate-label" x="1041.5" y="172">Rx(0.6000)</text><line class="control-link" x1="819.5" y1="23" x2="819.5" y2="88"/><circle class="control" cx="819.5" cy="28" r="5"/><circle class="target-x" cx="819.5" cy="76" r="12"/><line class="target-x" x1="811.5" y1="76" x2="827.5" y2="76"/><line class="target-x" x1="819.5" y1="68" x2="819.5" y2="84"/><rect class="gate-box" x="884" y="62" width="93" height="28" rx="6" ry="6" data-label="Rz(0.2000)"/><text class="gate-label" x="930.5" y="76">Rz(0.2000)</text><line class="control-link" x1="1041.5" y1="23" x2="1041.5" y2="88"/><circle class="control" cx="1041.5" cy="28" r="5"/><circle class="target-x" cx="1041.5" cy="76" r="12"/><line class="target-x" x1="1033.5" y1="76" x2="1049.5" y2="76"/><line class="target-x" x1="1041.5" y1="68" x2="1041.5" y2="84"/><line class="control-link" x1="1152.5" y1="71" x2="1152.5" y2="136"/><circle class="control" cx="1152.5" cy="76" r="5"/><circle class="target-x" cx="1152.5" cy="124" r="12"/><line class="target-x" x1="1144.5" y1="124" x2="1160.5" y2="124"/><line class="target-x" x1="1152.5" y1="116" x2="1152.5" y2="132"/><rect class="gate-box" x="1217" y="110" width="93" height="28" rx="6" ry="6" data-label="Rz(0.2000)"/><text class="gate-label" x="1263.5" y="124">Rz(0.2000)</text><line class="control-link" x1="1355" y1="71" x2="1355" y2="136"/><circle class="control" cx="1355" cy="76" r="5"/><circle class="target-x" cx="1355" cy="124" r="12"/><line class="target-x" x1="1347" y1="124" x2="1363" y2="124"/><line class="target-x" x1="1355" y1="116" x2="1355" y2="132"/><line class="control-link" x1="1446.5" y1="119" x2="1446.5" y2="184"/><circle class="control" cx="1446.5" cy="124" r="5"/><circle class="target-x" cx="1446.5" cy="172" r="12"/><line class="target-x" x1="1438.5" y1="172" x2="1454.5" y2="172"/><line class="target-x" x1="1446.5" y1="164" x2="1446.5" y2="180"/><rect class="gate-box" x="1511" y="158" width="93" height="28" rx="6" ry="6" data-label="Rz(0.2000)"/><text class="gate-label" x="1557.5" y="172">Rz(0.2000)</text><line class="control-link" x1="1649" y1="119" x2="1649" y2="184"/><circle class="control" cx="1649" cy="124" r="5"/><circle class="target-x" cx="1649" cy="172" r="12"/><line class="target-x" x1="1641" y1="172" x2="1657" y2="172"/><line class="target-x" x1="1649" y1="164" x2="1649" y2="180"/><rect class="gate-box" x="1106" y="14" width="93" height="28" rx="6" ry="6" data-label="Rx(0.6000)"/><text class="gate-label" x="1152.5" y="28">Rx(0.6000)</text><rect class="gate-box" x="1400" y="62" width="93" height="28" rx="6" ry="6" data-label="Rx(0.6000)"/><text class="gate-label" x="1446.5" y="76">Rx(0.6000)</text><rect class="gate-box" x="1694" y="110" width="93" height="28" rx="6" ry="6" data-label="Rx(0.6000)"/><text class="gate-label" x="1740.5" y="124">Rx(0.6000)</text><rect class="gate-box" x="1694" y="158" width="93" height="28" rx="6" ry="6" data-label="Rx(0.6000)"/><text class="gate-label" x="1740.5" y="172">Rx(0.6000)</text></svg>