<svg xmlns="http://www.w3.org/2000/svg" viewBox="0 0 1705 296"><style>
.wire { stroke: #444; stroke-width: 2; }
.gate-box { fill: #fff; stroke: #111; stroke-width: 2; }
.channel-box { fill: #fff; stroke: #111; stroke-width: 2; stroke-dasharray: 6 4; }
.gate-label, .channel-label, .annotation-label { fill: #111; font-family: monospace; text-anchor: middle; dominant-baseline: middle; }
.annotation-label { dominant-baseline: auto; }
.control { fill: #111; stroke: #111; stroke-width: 2; }
.control-open { fill: #fff; stroke: #111; stroke-width: 2; }
.control-link { stroke: #111; stroke-width: 2; }
.target-x { fill: none; stroke: #111; stroke-width: 2; }
.swap-marker { stroke: #111; stroke-width: 2; }
</style><line class="wire" x1="16" y1="28" x2="1689" y2="28"/><line class="wire" x1="16" y1="76" x2="1689" y2="76"/><line class="wire" x1="16" y1="124" x2="1689" y2="124"/><line class="wire" x1="16" y1="172" x2="1689" y2="172"/><line class="wire" x1="16" y1="220" x2="1689" y2="220"/><line class="wire" x1="16" y1="268" x2="1689" y2="268"/><rect class="gate-box" x="41" y="14" width="93" height="28" rx="6" ry="6" data-label="Rx(0.1100)"/><text class="gate-label" x="87.5" y="28">Rx(0.1100)</text><rect class="gate-box" x="152" y="14" width="93" height="28" rx="6" ry="6" data-label="Rz(0.2300)"/><text class="gate-label" x="198.5" y="28">Rz(0.2300)</text><rect class="gate-box" x="41" y="62" width="93" height="28" rx="6" ry="6" data-label="Rx(0.3700)"/><text class="gate-label" x="87.5" y="76">Rx(0.3700)</text><rect class="gate-box" x="152" y="62" width="93" height="28" rx="6" ry="6" data-label="Rz(0.5100)"/><text class="gate-label" x="198.5" y="76">Rz(0.5100)</text><rect class="gate-box" x="41" y="110" width="93" height="28" rx="6" ry="6" data-label="Rx(0.6700)"/><text class="gate-label" x="87.5" y="124">Rx(0.6700)</text><rect class="gate-box" x="152" y="110" width="93" height="28" rx="6" ry="6" data-label="Rz(0.7900)"/><text class="gate-label" x="198.5" y="124">Rz(0.7900)</text><rect class="gate-box" x="41" y="158" width="93" height="28" rx="6" ry="6" data-label="Rx(0.8900)"/><text class="gate-label" x="87.5" y="172">Rx(0.8900)</text><rect class="gate-box" x="152" y="158" width="93" height="28" rx="6" ry="6" data-label="Rz(0.1100)"/><text class="gate-label" x="198.5" y="172">Rz(0.1100)</text><rect class="gate-box" x="41" y="206" width="93" height="28" rx="6" ry="6" data-label="Rx(0.2300)"/><text class="gate-label" x="87.5" y="220">Rx(0.2300)</text><rect class="gate-box" x="152" y="206" width="93" height="28" rx="6" ry="6" data-label="Rz(0.3700)"/><text class="gate-label" x="198.5" y="220">Rz(0.3700)</text><rect class="gate-box" x="41" y="254" width="93" height="28" rx="6" ry="6" data-label="Rx(0.5100)"/><text class="gate-label" x="87.5" y="268">Rx(0.5100)</text><rect class="gate-box" x="152" y="254" width="93" height="28" rx="6" ry="6" data-label="Rz(0.6700)"/><text class="gate-label" x="198.5" y="268">Rz(0.6700)</text><line class="control-link" x1="290" y1="23" x2="290" y2="88"/><circle class="control" cx="290" cy="28" r="5"/><circle class="target-x" cx="290" cy="76" r="12"/><line class="target-x" x1="282" y1="76" x2="298" y2="76"/><line class="target-x" x1="290" y1="68" x2="290" y2="84"/><line class="control-link" x1="362" y1="71" x2="362" y2="136"/><circle class="control" cx="362" cy="76" r="5"/><circle class="target-x" cx="362" cy="124" r="12"/><line class="target-x" x1="354" y1="124" x2="370" y2="124"/><line class="target-x" x1="362" y1="116" x2="362" y2="132"/><line class="control-link" x1="434" y1="119" x2="434" y2="184"/><circle class="control" cx="434" cy="124" r="5"/><circle class="target-x" cx="434" cy="172" r="12"/><line class="target-x" x1="426" y1="172" x2="442" y2="172"/><line class="target-x" x1="434" y1="164" x2="434" y2="180"/><line class="control-link" x1="506" y1="167" x2="506" y2="232"/><circle class="control" cx="506" cy="172" r="5"/><circle class="target-x" cx="506" cy="220" r="12"/><line class="target-x" x1="498" y1="220" x2="514" y2="220"/><line class="target-x" x1="506" y1="212" x2="506" y2="228"/><line class="control-link" x1="578" y1="215" x2="578" y2="280"/><circle class="control" cx="578" cy="220" r="5"/><circle class="target-x" cx="578" cy="268" r="12"/><line class="target-x" x1="570" y1="268" x2="586" y2="268"/><line class="target-x" x1="578" y1="260" x2="578" y2="276"/><line class="control-link" x1="650" y1="16" x2="650" y2="273"/><circle class="control" cx="650" cy="268" r="5"/><circle class="target-x" cx="650" cy="28" r="12"/><line class="target-x" x1="642" y1="28" x2="658" y2="28"/><line class="target-x" x1="650" y1="20" x2="650" y2="36"/><rect class="gate-box" x="695" y="14" width="93" height="28" rx="6" ry="6" data-label="Rz(0.7900)"/><text class="gate-label" x="741.5" y="28">Rz(0.7900)</text><rect class="gate-box" x="806" y="14" width="93" height="28" rx="6" ry="6" data-label="Rx(0.8900)"/><text class="gate-label" x="852.5" y="28">Rx(0.8900)</text><rect class="gate-box" x="917" y="14" width="93" height="28" rx="6" ry="6" data-label="Rz(0.1100)"/><text class="gate-label" x="963.5" y="28">Rz(0.1100)</text><rect class="gate-box" x="695" y="62" width="93" height="28" rx="6" ry="6" data-label="Rz(0.2300)"/><text class="gate-label" x="741.5" y="76">Rz(0.2300)</text><rect class="gate-box" x="806" y="62" width="93" height="28" rx="6" ry="6" data-label="Rx(0.3700)"/><text class="gate-label" x="852.5" y="76">Rx(0.3700)</text><rect class="gate-box" x="917" y="62" width="93" height="28" rx="6" ry="6" data-label="Rz(0.5100)"/><text class="gate-label" x="963.5" y="76">Rz(0.5100)</text><rect class="gate-box" x="695" y="110" width="93" height="28" rx="6" ry="6" data-label="Rz(0.6700)"/><text class="gate-label" x="741.5" y="124">Rz(0.6700)</text><rect class="gate-box" x="806" y="110" width="93" height="28" rx="6" ry="6" data-label="Rx(0.7900)"/><text class="gate-label" x="852.5" y="124">Rx(0.7900)</text><rect class="gate-box" x="917" y="110" width="93" height="28" rx="6" ry="6" data-label="Rz(0.8900)"/><text class="gate-label" x="963.5" y="124">Rz(0.8900)</text><rect class="gate-box" x="695" y="158" width="93" height="28" rx="6" ry="6" data-label="Rz(0.1100)"/><text class="gate-label" x="741.5" y="172">Rz(0.1100)</text><rect class="gate-box" x="806" y="158" width="93" height="28" rx="6" ry="6" data-label="Rx(0.2300)"/><text class="gate-label" x="852.5" y="172">Rx(0.2300)</text><rect class="gate-box" x="917" y="158" width="93" height="28" rx="6" ry="6" data-label="Rz(0.3700)"/><text class="gate-label" x="963.5" y="172">Rz(0.3700)</text><rect class="gate-box" x="695" y="206" width="93" height="28" rx="6" ry="6" data-label="Rz(0.5100)"/><text class="gate-label" x="741.5" y="220">Rz(0.5100)</text><rect class="gate-box" x="806" y="206" width="93" height="28" rx="6" ry="6" data-label="Rx(0.6700)"/><text class="gate-label" x="852.5" y="220">Rx(0.6700)</text><rect class="gate-box" x="917" y="206" width="93" height="28" rx="6" ry="6" data-label="Rz(0.7900)"/><text class="gate-label" x="963.5" y="220">Rz(0.7900)</text><rect class="gate-box" x="695" y="254" width="93" height="28" rx="6" ry="6" data-label="Rz(0.8900)"/><text class="gate-label" x="741.5" y="268">Rz(0.8900)</text><rect class="gate-box" x="806" y="254" width="93" height="28" rx="6" ry="6" data-label="Rx(0.1100)"/><text class="gate-label" x="852.5" y="268">Rx(0.1100)</text><rect class="gate-box" x="917" y="254" width="93" height="28" rx="6" ry="6" data-label="Rz(0.2300)"/><text class="gate-label" x="963.5" y="268">Rz(0.2300)</text><line class="control-link" x1="1055" y1="23" x2="1055" y2="88"/><circle class="control" cx="1055" cy="28" r="5"/><circle class="target-x" cx="1055" cy="76" r="12"/><line class="target-x" x1="1047" y1="76" x2="1063" y2="76"/><line class="target-x" x1="1055" y1="68" x2="1055" y2="84"/><line class="control-link" x1="1127" y1="71" x2="1127" y2="136"/><circle class="control" cx="1127" cy="76" r="5"/><circle class="target-x" cx="1127" cy="124" r="12"/><line class="target-x" x1="1119" y1="124" x2="1135" y2="124"/><line class="target-x" x1="1127" y1="116" x2="1127" y2="132"/><line class="control-link" x1="1199" y1="119" x2="1199" y2="184"/><circle class="control" cx="1199" cy="124" r="5"/><circle class="target-x" cx="1199" cy="172" r="12"/><line class="target-x" x1="1191" y1="172" x2="1207" y2="172"/><line class="target-x" x1="1199" y1="164" x2="1199" y2="180"/><line class="control-link" x1="1271" y1="167" x2="1271" y2="232"/><circle class="control" cx="1271" cy="172" r="5"/><circle class="target-x" cx="1271" cy="220" r="12"/><line class="target-x" x1="1263" y1="220" x2="1279" y2="220"/><line class="target-x" x1="1271" y1="212" x2="1271" y2="228"/><line class="control-link" x1="1343" y1="215" x2="1343" y2="280"/><circle class="control" cx="1343" cy="220" r="5"/><circle class="target-x" cx="1343" cy="268" r="12"/><line class="target-x" x1="1335" y1="268" x2="1351" y2="268"/><line class="target-x" x1="1343" y1="260" x2="1343" y2="276"/><line class="control-link" x1="1415" y1="16" x2="1415" y2="273"/><circle class="control" cx="1415" cy="268" r="5"/><circle class="target-x" cx="1415" cy="28" r="12"/><line class="target-x" x1="1407" y1="28" x2="1423" y2="28"/><line class="target-x" x1="1415" y1="20" x2="1415" y2="36"/><rect class="gate-box" x="1460" y="14" width="93" height="28" rx="6" ry="6" data-label="Rz(0.3700)"/><text class="gate-label" x="1506.5" y="28">Rz(0.3700)</text><rect class="gate-box" x="1571" y="14" width="93" height="28" rx="6" ry="6" data-label="Rx(0.5100)"/><text class="gate-label" x="1617.5" y="28">Rx(0.5100)</text><rect class="gate-box" x="1460" y="62" width="93" height="28" rx="6" ry="6" data-label="Rz(0.6700)"/><text class="gate-label" x="1506.5" y="76">Rz(0.6700)</text><rect class="gate-box" x="1571" y="62" width="93" height="28" rx="6" ry="6" data-label="Rx(0.7900)"/><text class="gate-label" x="1617.5" y="76">Rx(0.7900)</text><rect class="gate-box" x="1460" y="110" width="93" height="28" rx="6" ry="6" data-label="Rz(0.8900)"/><text class="gate-label" x="1506.5" y="124">Rz(0.8900)</text><rect class="gate-box" x="1571" y="110" width="93" height="28" rx="6" ry="6" data-label="Rx(0.1100)"/><text class="gate-label" x="1617.5" y="124">Rx(0.1100)</text><rect class="gate-box" x="1460" y="158" width="93" height="28" rx="6" ry="6" data-label="Rz(0.2300)"/><text class="gate-label" x="1506.5" y="172">Rz(0.2300)</text><rect class="gate-box" x="1571" y="158" width="93" height="28" rx="6" ry="6" data-label="Rx(0.3700)"/><text class="gate-label" x="1617.5" y="172">Rx(0.3700)</text><rect class="gate-box" x="1460" y="206" width="93" height="28" rx="6" ry="6" data-label="Rz(0.5100)"/><text class="gate-label" x="1506.5" y="220">Rz(0.5100)</text><rect class="gate-box" x="1571" y="206" width="93" height="28" rx="6" ry="6" data-label="Rx(0.6700)"/><text class="gate-label" x="1617.5" y="220">Rx(0.6700)</text><rect class="gate-box" x="1460" y="254" width="93" height="28" rx="6" ry="6" data-label="Rz(0.7900)"/><text class="gate-label" x="1506.5" y="268">Rz(0.7900)</text><rect class="gate-box" x="1571" y="254" width="93" height="28" rx="6" ry="6" data-label="Rx(0.8900)"/><text class="gate-label" x="1617.5" y="268">Rx(0.8900)</text></svg>