<svg xmlns="http://www.w3.org/2000/svg" viewBox="0 0 1225 200"><style>
.wire { stroke: #444; stroke-width: 2; }
.gate-box { fill: #fff; stroke: #111; stroke-width: 2; }
.channel-box { fill: #fff; stroke: #111; stroke-width: 2; stroke-dasharray: 6 4; }
.gate-label, .channel-label, .annotation-label { fill: #111; font-family: monospace; text-anchor: middle; dominant-baseline: middle; }
.annotation-label { dominant-baseline: auto; }
.control { fill: #111; stroke: #111; stroke-width: 2; }
.control-open { fill: #fff; stroke: #111; stroke-width: 2; }
.control-link { stroke: #111; stroke-width: 2; }
.target-x { fill: none; stroke: #111; stroke-width: 2; }
.swap-marker { stroke: #111; stroke-width: 2; }
</style><line class="wire" x1="16" y1="28" x2="1209" y2="28"/><line class="wire" x1="16" y1="76" x2="1209" y2="76"/><line class="wire" x1="16" y1="124" x2="1209" y2="124"/><line class="wire" x1="16" y1="172" x2="1209" y2="172"/><rect class="gate-box" x="47" y="14" width="42" height="28" rx="6" ry="6" data-label="H"/><text class="gate-label" x="68" y="28">H</text><rect class="gate-box" x="47" y="62" width="42" height="28" rx="6" ry="6" data-label="H"/><text class="gate-label" x="68" y="76">H</text><rect class="gate-box" x="47" y="110" width="42" height="28" rx="6" ry="6" data-label="H"/><text class="gate-label" x="68" y="124">H</text><rect class="gate-box" x="47" y="158" width="42" height="28" rx="6" ry="6" data-label="H"/><text class="gate-label" x="68" y="172">H</text><rect class="gate-box" x="119" y="14" width="42" height="28" rx="6" ry="6" data-label="H"/><text class="gate-label" x="140" y="28">H</text><line class="control-link" x1="242.75" y1="14" x2="242.75" y2="81"/><circle class="control" cx="242.75" cy="76" r="5"/><rect class="gate-box" x="185" y="14" width="115.5" height="28" rx="6" ry="6" data-label="Phase(1.5708)"/><text class="gate-label" x="242.75" y="28">Phase(1.5708)</text><line class="control-link" x1="376.25" y1="14" x2="376.25" y2="129"/><circle class="control" cx="376.25" cy="124" r="5"/><rect class="gate-box" x="318.5" y="14" width="115.5" height="28" rx="6" ry="6" data-label="Phase(0.7854)"/><text class="gate-label" x="376.25" y="28">Phase(0.7854)</text><line class="control-link" x1="509.75" y1="14" x2="509.75" y2="177"/><circle class="control" cx="509.75" cy="172" r="5"/><rect class="gate-box" x="452" y="14" width="115.5" height="28" rx="6" ry="6" data-label="Phase(0.3927)"/><text class="gate-label" x="509.75" y="28">Phase(0.3927)</text><rect class="gate-box" x="591.5" y="62" width="42" height="28" rx="6" ry="6" data-label="H"/><text class="gate-label" x="612.5" y="76">H</text><line class="control-link" x1="715.25" y1="62" x2="715.25" y2="129"/><circle class="control" cx="715.25" cy="124" r="5"/><rect class="gate-box" x="657.5" y="62" width="115.5" height="28" rx="6" ry="6" data-label="Phase(1.5708)"/><text class="gate-label" x="715.25" y="76">Phase(1.5708)</text><line class="control-link" x1="848.75" y1="62" x2="848.75" y2="177"/><circle class="control" cx="848.75" cy="172" r="5"/><rect class="gate-box" x="791" y="62" width="115.5" height="28" rx="6" ry="6" data-label="Phase(0.7854)"/><text class="gate-label" x="848.75" y="76">Phase(0.7854)</text><rect class="gate-box" x="930.5" y="110" width="42" height="28" rx="6" ry="6" data-label="H"/><text class="gate-label" x="951.5" y="124">H</text><line class="control-link" x1="1054.25" y1="110" x2="1054.25" y2="177"/><circle class="control" cx="1054.25" cy="172" r="5"/><rect class="gate-box" x="996.5" y="110" width="115.5" height="28" rx="6" ry="6" data-label="Phase(1.5708)"/><text class="gate-label" x="1054.25" y="124">Phase(1.5708)</text><rect class="gate-box" x="1136" y="158" width="42" height="28" rx="6" ry="6" data-label="H"/><text class="gate-label" x="1157" y="172">H</text></svg>